# xmcd
#
# Track frame offsets:
#	150
#	14842
#	27537
#	41525
#	57317
#	69200
#	99540
#	113150
#	127895
#	138677
#	152700
#	166717
#	186052
#	198347
#
# Disc length: 2811 seconds
#
# Revision: 0
# Processed by: cddbd v1.5.2PL0 Copyright (c) Steve Scherf et al.
# Submitted via: audiograbber 1.82.02
#
DISCID=bd0af90e
DTITLE=Various Artist - Blues Master Course [CD1]
DYEAR=1995
DGENRE=Blues
TTITLE0=Bessie Smith - Mean Ole Bed Bug Blues
TTITLE1=Sippie Wallace With Otis Spann - Black Snake Blues
TTITLE2=Leadbelly - Looky, Looky, Yonder ? Black Betty ? Yellow Woman's Doorbel
TTITLE2=is
TTITLE3=Mississippi Fred McDowell - Good Mornig Little School Girl
TTITLE4=Big Joe Williams - Old Saw Mill Blues
TTITLE5=Sonny Terry and Brownie McGhee - Everybody's Blues
TTITLE6=Lightnin' Hopkins - Stool Pigeon Blues
TTITLE7=Big Bill Broonzy - Baby Please Don't Go
TTITLE8=Hogg, Smokey - Good Mornig Little School Girl
TTITLE9=Elmore James - Make A Little Love
TTITLE10=Sonny Boy Williamson - Steady Rollin' Man
TTITLE11=Howlin' Wolf - Howlin' For My Darlin'
TTITLE12=Willie Dixon Band - Just Like Heaven To Me
TTITLE13=John Lee Hooker - Crawlin' King Snake
EXTD=
EXTT0=
EXTT1=
EXTT2=
EXTT3=
EXTT4=
EXTT5=
EXTT6=
EXTT7=
EXTT8=
EXTT9=
EXTT10=
EXTT11=
EXTT12=
EXTT13=
PLAYORDER=
